<?xml version="1.0" encoding="UTF-8"?>
<svg id="Capa_2" xmlns="http://www.w3.org/2000/svg" version="1.1" viewBox="0 0 240 32.01">
  <!-- Generator: Adobe Illustrator 30.0.0, SVG Export Plug-In . SVG Version: 2.1.1 Build 123)  -->
  <defs>
    <style>
      .st0 {
        fill: #e0000f;
      }

      .st1 {
        fill: #fff;
      }

      .st2 {
        fill: #e4002b;
      }

      .st3 {
        fill: #012169;
      }
    </style>
  </defs>
  <path d="M234.57,9.58c2.36-.6,3.93-2.24,3.93-4.68,0-3.15-2.95-4.65-6.09-4.64h-8.74v18.3h4.64v-7.13h.77c1.82,0,2.98-.27,4.33,3.51l1.28,3.62h5.31l-2.27-5.36c-.92-2.23-1.59-3.2-3.16-3.62h0ZM230.31,7.99h-2V3.69h2c1.93,0,3.3.41,3.3,2.13s-1.37,2.17-3.3,2.17ZM220.71,18.56h-13.11V.26h12.83v3.44h-7.98v3.76h7.54v3.44h-7.54v4.22h8.26v3.44ZM197.18,7.99h7.68v9c-2.29,1.57-4.84,1.9-7.38,1.92-2.93.03-5.94-1.19-7.88-3.46-1.29-1.51-2.11-3.5-2.11-5.89,0-6.37,5.47-10.09,11.5-9.49,1.19.12,3.17.43,5.15,1.49l-1.86,3.05c-1.13-.47-1.74-.69-2.88-.82-3.97-.46-7.12,2.11-7.12,6.01,0,3.16,2.48,5.5,6.03,5.5.65,0,1.85-.04,2.6-.55v-3.32h-3.73v-3.44h0ZM182.09,9.58c2.36-.6,3.93-2.24,3.93-4.68,0-3.15-2.95-4.65-6.09-4.64h-8.74v18.3h4.64v-7.13h.77c1.82,0,2.98-.27,4.33,3.51l1.28,3.62h5.31l-2.27-5.36c-.92-2.23-1.59-3.2-3.16-3.62h0ZM177.83,7.99h-2V3.69h2c1.93,0,3.3.41,3.3,2.13s-1.37,2.17-3.3,2.17ZM168.23,18.56h-13.11V.26h12.83v3.44h-7.98v3.76h7.54v3.44h-7.54v4.22h8.26v3.44ZM152.11,15.45c.28-.63.44-1.37.44-2.25,0-2.22-1.25-3.52-3.68-4.02,2.04-.73,3.21-2.01,3.21-4.3,0-3.13-2.53-4.61-5.92-4.61h-8.38v18.3h7.67c2.6,0,5.56-.64,6.66-3.11h0ZM144.07,15.02h-1.43v-4.28h1.48c1.67,0,3.57.18,3.57,2.17,0,1.85-1.85,2.11-3.63,2.11h0ZM142.64,3.7h1.41c1.62,0,3.18.16,3.18,1.83,0,1.54-1.64,1.93-3.23,1.93h-1.36v-3.76h0ZM122.3,18.56h-4.16V.26h5.98l5.94,12.36V.26h4.3v18.3h-5.83l-6.24-12.54v12.54h.01ZM114.93,18.56h-13.11V.26h12.83v3.44h-7.98v3.76h7.54v3.44h-7.54v4.22h8.26v3.44ZM93.38.26h4.85v18.3h-4.85v-7.65h-5.74v7.65h-4.85V.26h4.85v7.2h5.74V.26h0ZM65.62.26h14.7v4.19h-4.92v14.11h-4.85V4.45h-4.92V.26h-.01ZM55.91,0c-4.84,0-9.45,3.68-9.46,9.42,0,2.36.8,4.43,2.11,6.03h0c1.77,2.16,4.47,3.46,7.37,3.46s5.59-1.3,7.36-3.46h0c1.31-1.6,2.11-3.68,2.11-6.04-.01-5.74-4.64-9.41-9.49-9.41h0ZM55.91,14.86c-2.97,0-4.43-2.5-4.43-5.44s1.52-5.43,4.47-5.43,4.42,2.52,4.42,5.44-1.49,5.43-4.46,5.43ZM40.9,9.58c2.36-.6,3.93-2.24,3.93-4.68,0-3.15-2.95-4.65-6.09-4.64h-8.74v18.3h4.64v-7.13h.77c1.82,0,2.98-.27,4.33,3.51l1.28,3.62h5.31l-2.27-5.36c-.92-2.23-1.59-3.2-3.16-3.62h0ZM36.64,7.99h-2V3.69h2c1.93,0,3.3.41,3.3,2.13s-1.37,2.17-3.3,2.17Z"/>
  <path class="st0" d="M46.33,18.56l2.17,5.03c-5.11,4.02-11.49,6.41-18.49,6.41C13.5,30,.13,16.73,0,.26h5.14c.13,13.6,11.23,24.54,24.86,24.54,6.3,0,11.95-2.37,16.33-6.24Z"/>
  <g>
    <path class="st3" d="M237.95,20.03c0,3.45,0,7.24,0,10.68-5.03-2.79-11.04,2.79-16.07,0,0-3.45,0-7.23,0-10.68,5.36,2.78,10.71-2.78,16.07,0Z"/>
    <g>
      <path class="st1" d="M229.07,25.59c.28-.07.56-.14.84-.22,0-.2,0-.4,0-.6-.59-.24-1.19-.48-1.78-.74.59-.13,1.19-.29,1.78-.44,0-.59,0-1.19,0-1.78-.6.15-1.19.31-1.79.44.6-.53,1.19-1.07,1.79-1.62,0-.2,0-.4,0-.6-.28.07-.56.15-.85.22-.83.76-1.67,1.5-2.5,2.15v-1.65c-.45.06-.89.09-1.34.08v1.64c-.83-.55-1.65-1.22-2.48-2.06-.29-.1-.58-.23-.87-.38v.58c.6.71,1.21,1.32,1.81,1.84-.6-.13-1.21-.33-1.81-.65v1.78c.6.31,1.2.52,1.81.64-.6.27-1.2.46-1.81.55v.58c.29.15.58.28.87.38.83-.25,1.65-.68,2.48-1.22v1.64c.45,0,.89-.03,1.34-.08v-1.66c.83.45,1.67.81,2.5,1.15Z"/>
      <path class="st2" d="M229.91,20.03c-.19.05-.38.1-.57.15-.9.82-1.79,1.63-2.69,2.34.21-.03.41-.06.62-.1.88-.75,1.76-1.57,2.64-2.39t0,0Z"/>
      <path class="st2" d="M227.83,24.08c-.21.04-.41.08-.62.12.9.45,1.79.81,2.69,1.18,0,0,0,0,.01,0,0-.14,0-.27,0-.41-.69-.28-1.39-.57-2.08-.89Z"/>
      <path class="st2" d="M221.9,25.38c.2.1.4.19.6.27.9-.23,1.79-.68,2.69-1.26-.21,0-.41-.01-.62-.03-.89.52-1.78.88-2.67,1.02Z"/>
      <path class="st2" d="M221.88,20.43c.69.81,1.37,1.48,2.06,2.05.21.04.41.06.62.08-.89-.66-1.79-1.48-2.68-2.53v.4Z"/>
      <path class="st2" d="M229.91,22.16c-1.2.31-2.41.62-3.61.75v-2.13c-.27.03-.54.05-.81.05v2.13c-1.2.03-2.41-.18-3.61-.8v1.08c1.2.62,2.41.83,3.61.8v2.13c.27,0,.54-.02.81-.05v-2.13c1.2-.12,2.41-.44,3.61-.75,0-.36,0-.72,0-1.08Z"/>
    </g>
    <g>
      <path class="st1" d="M224.97,27.22c.09.32.19.65.28.97.29-.12.58-.25.87-.4-.17.29-.35.59-.52.87.27.16.54.31.81.45-.31.06-.62.11-.93.15.04.33.09.66.13,1-.21-.24-.43-.48-.64-.73-.21.24-.43.47-.64.68.04-.33.09-.66.13-.99-.31-.06-.62-.14-.93-.24.27-.11.54-.23.81-.37-.17-.3-.35-.61-.52-.92.29.18.58.33.87.47.09-.31.19-.63.28-.95Z"/>
      <path class="st1" d="M236.49,22.65c.05.17.09.33.14.5.14-.02.28-.03.42-.04-.08.1-.17.21-.25.32.13.12.26.25.38.38-.15-.04-.3-.08-.45-.11.02.17.04.33.06.5-.1-.15-.2-.29-.31-.44-.1.09-.2.18-.31.28.02-.15.04-.31.06-.46-.15-.05-.3-.09-.45-.13.13-.06.26-.12.38-.17-.08-.15-.17-.3-.25-.45.14.08.28.17.42.26.05-.14.09-.28.14-.43Z"/>
      <path class="st1" d="M231.82,23.46c.05.14.09.29.14.43.14-.09.28-.17.42-.25-.08.15-.17.3-.25.45.13.06.26.11.38.17-.15.04-.3.08-.45.13.02.15.04.31.06.47-.1-.1-.2-.19-.31-.29-.1.14-.2.28-.31.42.02-.16.04-.33.06-.49-.15.02-.3.04-.45.06.13-.11.26-.22.38-.34-.08-.11-.17-.23-.25-.34.14.02.28.05.42.08.05-.16.09-.33.14-.49Z"/>
      <path class="st1" d="M234.3,20.24c.05.15.09.3.14.46.14-.06.28-.12.42-.17-.08.13-.17.26-.25.4.13.08.26.17.38.26-.15,0-.3.02-.45.03.02.16.04.32.06.48-.1-.12-.2-.23-.31-.35-.1.12-.2.24-.31.36.02-.16.04-.32.06-.48-.15,0-.3,0-.45,0,.13-.09.26-.19.38-.27-.08-.13-.17-.26-.25-.38.14.05.28.09.42.15.05-.16.09-.31.14-.46Z"/>
      <path class="st1" d="M234.29,27.35c.05.15.09.3.14.46.14-.06.28-.12.42-.17-.08.13-.17.26-.25.4.13.08.26.17.38.26-.15,0-.3.02-.45.03.02.16.04.32.06.48-.1-.12-.2-.23-.31-.35-.1.12-.2.24-.31.36.02-.16.04-.32.06-.48-.15,0-.3,0-.45,0,.13-.09.26-.19.38-.27-.08-.13-.17-.26-.25-.38.14.05.28.09.42.15.05-.16.09-.31.14-.46Z"/>
      <path class="st1" d="M235.28,24.59c.04.1.07.2.11.3.1.02.19.04.29.06-.07.06-.15.11-.22.17.02.1.05.2.07.31-.08-.06-.16-.13-.24-.19-.08.05-.16.1-.24.15.02-.1.05-.2.07-.3-.07-.07-.15-.14-.22-.21.1,0,.19,0,.29,0,.04-.09.07-.19.11-.28Z"/>
    </g>
  </g>
</svg>